<svg width="22" height="24" viewBox="0 0 22 24" fill="none" xmlns="http://www.w3.org/2000/svg">
<path d="M19.8828 10.5C20.7112 10.5 21.3828 11.1716 21.3828 12C21.3828 12.8284 20.7112 13.5 19.8828 13.5V10.5ZM0.822153 13.0607C0.236366 12.4749 0.236366 11.5251 0.822153 10.9393L10.3681 1.3934C10.9539 0.807611 11.9036 0.807611 12.4894 1.3934C13.0752 1.97919 13.0752 2.92893 12.4894 3.51472L4.00413 12L12.4894 20.4853C13.0752 21.0711 13.0752 22.0208 12.4894 22.6066C11.9036 23.1924 10.9539 23.1924 10.3681 22.6066L0.822153 13.0607ZM19.8828 13.5H1.88281V10.5H19.8828V13.5Z" fill="#2B1B9A"/>
</svg>
