<svg width="120" height="120" viewBox="0 0 120 120" fill="none" xmlns="http://www.w3.org/2000/svg">
<path d="M83.3931 14.5862C78.7655 14.1241 73.0483 15.0896 70.469 15.7724C66.0288 16.8897 61.9404 19.1046 58.5793 22.2137C55.1724 18.6206 50.1379 16.6206 47.6966 15.862C42.7734 14.2884 37.5447 13.9176 32.4487 14.7806C27.3527 15.6435 22.5377 17.7152 18.4071 20.8219C14.2765 23.9287 10.9505 27.9801 8.70782 32.6367C6.46514 37.2934 5.37106 42.4197 5.51724 47.5862C5.82759 58 11.3724 68.3448 19.0345 75.0344C23.2759 78.7379 57.2897 106.331 57.2897 106.331C57.8601 106.69 58.5277 106.864 59.2007 106.828C59.8738 106.792 60.5192 106.549 61.0483 106.131C68.2552 100.476 94.6345 78.8482 98.869 75.1517C106.538 68.4551 112.083 58.1103 112.4 47.7103C112.624 39.5511 109.761 31.6079 104.384 25.4674C99.0065 19.3268 91.5104 15.441 83.3931 14.5862Z" fill="#F5F4FE"/>
<path d="M19.0345 75.0345C23.2759 78.7379 57.2897 106.331 57.2897 106.331C57.8601 106.69 58.5277 106.864 59.2007 106.828C59.8738 106.792 60.5192 106.549 61.0483 106.131C68.2552 100.476 94.6345 78.8483 98.869 75.1517C106.538 68.4552 112.083 58.1103 112.4 47.7103C112.618 39.5547 109.753 31.6166 104.377 25.4805C98.9998 19.3443 91.5068 15.4615 83.3931 14.6069C78.7655 14.1448 73.0483 15.1103 70.469 15.7931C65.5686 17.009 61.1077 19.5751 57.5931 23.2C56.2203 24.5669 55.276 26.3045 54.8759 28.2C54.5724 30.3655 55.4414 31.9655 56.9448 32.7103C57.3888 32.9126 57.8707 33.0184 58.3586 33.0207V33.0207C61.7241 32.9724 62.3931 29.9862 61.4965 27.0758C59.4276 20.2345 51.069 16.9172 47.7034 15.8345C42.7776 14.2587 37.5456 13.887 32.4465 14.7508C27.3473 15.6145 22.5296 17.6884 18.3975 20.7985C14.2653 23.9086 10.9392 27.9642 8.69805 32.6252C6.45693 37.2862 5.36616 42.4166 5.51724 47.5862" stroke="#2B1B9E" stroke-width="1.5" stroke-linecap="round" stroke-linejoin="round"/>
<path d="M84.5724 40.7655H32.931C31.7617 40.7655 30.8138 41.7134 30.8138 42.8827V73.1655C30.8138 74.3348 31.7617 75.2827 32.931 75.2827H84.5724C85.7417 75.2827 86.6897 74.3348 86.6897 73.1655V42.8827C86.6897 41.7134 85.7417 40.7655 84.5724 40.7655Z" fill="white"/>
<path d="M31.9862 40.7656C30.7379 40.7656 30.1172 42.8828 31.1586 43.5656L53.3517 58.0483C54.8259 59.1819 56.6335 59.7965 58.4931 59.7965C60.3528 59.7965 62.1603 59.1819 63.6345 58.0483L86.5241 42.2552C86.6584 42.1359 86.7552 41.9804 86.8031 41.8073C86.8509 41.6342 86.8477 41.4509 86.7937 41.2796C86.7398 41.1083 86.6375 40.9563 86.4991 40.8418C86.3607 40.7274 86.1922 40.6554 86.0138 40.6345L31.9862 40.7656Z" fill="#A195F9"/>
<path d="M86.6828 42.8828V73.1656C86.6837 73.4439 86.6295 73.7196 86.5235 73.9769C86.4174 74.2342 86.2615 74.4679 86.0647 74.6647C85.8679 74.8615 85.6341 75.0174 85.3768 75.1235C85.1195 75.2296 84.8438 75.2837 84.5655 75.2828" stroke="#2B1B9E" stroke-width="1.5" stroke-linecap="round" stroke-linejoin="round"/>
<path d="M72.6276 75.2828H32.931C32.6527 75.2837 32.377 75.2296 32.1197 75.1235C31.8624 75.0174 31.6287 74.8615 31.4319 74.6647C31.2351 74.4679 31.0792 74.2342 30.9731 73.9769C30.867 73.7196 30.8129 73.4439 30.8138 73.1656V42.8828" stroke="#2B1B9E" stroke-width="1.5" stroke-linecap="round" stroke-linejoin="round"/>
<path d="M81.4966 48.8068C79.0552 45.4758 80.1172 43.7586 81.0966 43.5724C82.531 43.3034 82.8552 45.2137 81.7862 46.0068L61.4759 58.7999C60.7051 59.3635 59.7829 59.6826 58.8286 59.7158C57.8744 59.749 56.9322 59.4948 56.1241 58.9862L35.069 45.7862" stroke="#2B1B9E" stroke-width="1.5" stroke-linecap="round" stroke-linejoin="round"/>
<path d="M81.4897 64.2828C81.0547 64.0505 80.5576 63.9612 80.069 64.0276C78.7793 64.1862 78.0828 65.2345 78 67.1449H78.9034C78.8528 66.4386 79.0805 65.7405 79.5379 65.2C79.6792 65.0819 79.8435 64.9944 80.0204 64.9434C80.1974 64.8923 80.383 64.8787 80.5655 64.9035C80.7324 64.9127 80.8944 64.9636 81.0365 65.0515C81.1787 65.1395 81.2966 65.2617 81.3793 65.4069C81.4626 65.5629 81.5062 65.737 81.5062 65.9138C81.5062 66.0906 81.4626 66.2647 81.3793 66.4207C80.9862 67.2207 80.0483 67.3449 79.1793 67.3655H77.7931H77.6345C77.3522 67.3535 77.0711 67.4099 76.8153 67.53C76.5595 67.6501 76.3366 67.8303 76.1655 68.0552C76.0279 68.2984 75.9674 68.5776 75.9921 68.856C76.0167 69.1343 76.1253 69.3986 76.3034 69.6138C76.4341 69.7606 76.5946 69.8777 76.7742 69.9574C76.9538 70.0371 77.1483 70.0775 77.3448 70.0759C77.5189 70.0769 77.6918 70.0466 77.8552 69.9862C78.1628 69.8572 78.425 69.6393 78.608 69.3604C78.7911 69.0815 78.8867 68.7543 78.8828 68.4207H77.9793C77.9793 68.669 77.8069 69.2483 77.2897 69.1862C77.2115 69.1742 77.1376 69.1426 77.0749 69.0944C77.0122 69.0462 76.9627 68.9829 76.931 68.9104C76.8934 68.8467 76.8736 68.774 76.8736 68.7C76.8736 68.626 76.8934 68.5534 76.931 68.4897C77.0483 68.3173 77.3379 68.2207 77.8138 68.2069H79.2345C79.8512 68.2182 80.4638 68.1032 81.0345 67.869C81.5072 67.6736 81.9057 67.3331 82.1724 66.8966C82.424 66.4475 82.4908 65.9182 82.3586 65.4207C82.2981 65.1831 82.1898 64.9603 82.0405 64.7658C81.8911 64.5714 81.7037 64.4094 81.4897 64.2897" fill="#FFB41E"/>
</svg>
