<svg width="240.153687" height="34.549805" viewBox="0 0 240.154 34.5498" fill="none" xmlns="http://www.w3.org/2000/svg" xmlns:xlink="http://www.w3.org/1999/xlink">
	<desc>
			Created with Pixso.
	</desc>
	<defs>
		<clipPath id="clip4_17">
			<rect id="Layer_1" rx="-0.080103" width="44.638401" height="34.389980" transform="translate(0.080103 0.080103)" fill="white" fill-opacity="0"/>
		</clipPath>
	</defs>
	<rect id="Layer_1" rx="-0.080103" width="44.638401" height="34.389980" transform="translate(0.080103 0.080103)" fill="#FFFFFF" fill-opacity="0"/>
	<g clip-path="url(#clip4_17)">
		<path id="Vector" d="M25.6 7.47L29.2 3.87C32.43 0.63 37.69 0.63 40.92 3.87C44.16 7.1 44.16 12.76 40.92 16" stroke="#2B1B9A" stroke-opacity="1.000000" stroke-width="2.133267" stroke-linecap="round"/>
		<path id="Vector" d="M27.37 5.68L25.41 7.65C23.74 9.31 21.04 9.31 19.38 7.65L15.59 3.87C12.35 0.63 7.1 0.63 3.87 3.87C0.63 7.1 0.63 12.36 3.87 15.59L19.88 30.4C21.5 31.91 24.01 31.92 25.64 30.43L38.39 18.83" stroke="#2B1B9A" stroke-opacity="1.000000" stroke-width="2.133267" stroke-linecap="round"/>
		<path id="Vector" d="M14.93 18.84L20.5 23.99C21.9 25.29 24.08 25.24 25.43 23.89L30.48 18.84" stroke="#67B6F4" stroke-opacity="1.000000" stroke-width="2.133267" stroke-linecap="round"/>
		<path id="Vector" d="M33.06 15.99L36.55 12.51C37.78 11.28 37.82 9.29 36.64 8.01C35.44 6.72 33.43 6.62 32.1 7.78L25.89 13.27C23.88 15.04 20.88 15.07 18.84 13.34L12.12 7.55C10.9 6.5 9.07 6.57 7.93 7.7C6.7 8.93 6.73 10.93 7.99 12.12L12.08 15.99" stroke="#9D91F5" stroke-opacity="1.000000" stroke-width="2.133267" stroke-linecap="round"/>
	</g>
	<path id="ANISA FOUNDATION" d="M95.61 22.97Q96.83 23.92 99.07 23.92Q100.51 23.92 101.59 23.45Q102.6 23 103.19 22.23Q103.23 22.17 103.27 22.12Q103.46 21.84 103.6 21.53Q103.86 20.9 103.86 20.15Q103.86 19.01 103.38 18.35Q102.89 17.68 101.99 17.3Q101.08 16.91 99.84 16.6Q98.66 16.31 98.21 15.98Q97.99 15.81 97.87 15.58Q97.77 15.36 97.77 15.1Q97.77 14.78 97.91 14.53Q98.02 14.31 98.23 14.15Q98.69 13.8 99.45 13.8Q100.13 13.8 100.59 14.12Q100.64 14.15 100.69 14.19Q100.81 14.28 100.91 14.4Q101.22 14.74 101.32 15.27L103.76 14.86Q103.65 13.84 103.14 13.11Q102.86 12.71 102.46 12.39Q102.39 12.32 102.3 12.27Q101.22 11.48 99.56 11.48Q98.2 11.48 97.16 11.97Q96.32 12.36 95.78 13Q95.65 13.16 95.53 13.32Q95.37 13.57 95.25 13.84Q94.96 14.52 94.96 15.32Q94.96 16.4 95.4 17.1Q95.84 17.8 96.71 18.23Q97.58 18.67 98.85 18.97Q100.03 19.25 100.54 19.56Q100.86 19.75 100.98 20.02Q101.05 20.19 101.05 20.39Q101.05 20.68 100.93 20.9Q100.81 21.13 100.56 21.29Q100.08 21.6 99.17 21.6Q98.11 21.6 97.51 21.14Q97.37 21.03 97.26 20.89Q96.89 20.46 96.82 19.78L94.21 20.15Q94.34 21.59 95.1 22.49Q95.33 22.75 95.61 22.97ZM135.94 23.2Q137.18 23.91 138.87 23.91Q140.17 23.91 141.25 23.41Q141.52 23.28 141.78 23.12Q142.08 22.93 142.36 22.7Q143.23 21.98 143.78 20.88Q144.52 19.44 144.52 17.47Q144.52 15.66 143.85 14.32Q143.4 13.42 142.71 12.78Q142.37 12.48 141.98 12.23Q141.81 12.13 141.63 12.04Q140.55 11.48 139.19 11.48Q137.74 11.48 136.59 12.06Q136.37 12.17 136.16 12.3Q135.8 12.53 135.47 12.81Q134.65 13.53 134.12 14.58Q133.37 16.04 133.37 17.93Q133.37 19.83 134.04 21.16Q134.45 21.99 135.09 22.58Q135.48 22.93 135.94 23.2ZM216.6 23.2Q217.83 23.91 219.52 23.91Q220.83 23.91 221.9 23.41Q222.17 23.28 222.43 23.12Q222.74 22.93 223.01 22.7Q223.88 21.98 224.44 20.88Q225.17 19.44 225.17 17.47Q225.17 15.66 224.5 14.32Q224.06 13.42 223.36 12.78Q223.03 12.48 222.64 12.23Q222.47 12.13 222.29 12.04Q221.21 11.48 219.85 11.48Q218.4 11.48 217.24 12.06Q217.02 12.17 216.82 12.3Q216.45 12.53 216.13 12.81Q215.3 13.53 214.77 14.58Q214.03 16.04 214.03 17.93Q214.03 19.83 214.69 21.16Q215.11 21.99 215.75 22.58Q216.13 22.93 216.6 23.2ZM65.99 11.65L60.74 23.77L63.57 23.77L64.58 21.3L69.58 21.3L70.55 23.77L73.39 23.77L68.33 11.65L65.99 11.65ZM85.74 11.65L83.06 11.65L83.06 19.18L77.68 11.65L75.21 11.65L75.21 23.77L77.89 23.77L77.89 16.25L83.27 23.77L85.74 23.77L85.74 11.65ZM89.05 11.65L89.05 23.77L91.83 23.77L91.83 11.65L89.05 11.65ZM109.94 11.65L104.69 23.77L107.52 23.77L108.52 21.3L113.52 21.3L114.5 23.77L117.33 23.77L112.28 11.65L109.94 11.65ZM125.88 12.78L131.25 12.78L131.25 11.65L124.58 11.65L124.58 23.77L125.88 23.77L125.88 18.36L131.11 18.36L131.11 17.23L125.88 17.23L125.88 12.78ZM157.49 11.65L156.17 11.65L156.19 17.93Q156.21 20.36 155.35 21.53Q155.19 21.75 154.99 21.93Q154.14 22.7 152.61 22.7Q151.01 22.7 150.2 21.9Q150.11 21.81 150.03 21.71Q149.23 20.72 149.23 18.53L149.23 11.65L147.88 11.65L147.88 18.6Q147.88 21.35 149.05 22.63Q149.13 22.72 149.21 22.8Q150.38 23.91 152.61 23.91Q154.54 23.91 155.71 22.96Q156.03 22.71 156.28 22.38Q157.5 20.85 157.5 17.95L157.49 11.65ZM170.71 11.65L169.45 11.65L169.45 21.55L162.4 11.65L161.28 11.65L161.28 23.77L162.54 23.77L162.54 13.87L169.59 23.77L170.71 23.77L170.71 11.65ZM174.54 11.65L174.54 23.77L178.09 23.77Q180.13 23.77 181.6 23.04Q182.5 22.59 183.14 21.9Q183.55 21.46 183.85 20.93Q184.64 19.55 184.64 17.65Q184.64 15.13 183.4 13.67Q181.68 11.65 177.61 11.65L174.54 11.65ZM191.57 11.65L186.53 23.77L187.88 23.77L189.2 20.53L194.95 20.53L196.21 23.77L197.54 23.77L192.71 11.65L191.57 11.65ZM206.76 12.8L206.88 11.65L197.59 11.65L197.59 12.8L201.55 12.8L201.55 23.77L202.88 23.77L202.88 12.8L206.76 12.8ZM209.3 11.65L209.3 23.77L210.61 23.77L210.61 11.65L209.3 11.65ZM238.02 11.65L236.76 11.65L236.76 21.55L229.71 11.65L228.59 11.65L228.59 23.77L229.85 23.77L229.85 13.87L236.9 23.77L238.02 23.77L238.02 11.65ZM140.8 22.25Q139.95 22.7 138.87 22.7Q137.49 22.7 136.53 22.07Q136.15 21.81 135.83 21.46Q134.72 20.22 134.72 17.93Q134.72 16.36 135.29 15.19Q135.74 14.26 136.47 13.66Q136.66 13.49 136.88 13.35Q137.14 13.19 137.42 13.06Q138.23 12.7 139.21 12.7Q140.29 12.7 141.12 13.16Q141.21 13.21 141.31 13.27Q141.47 13.38 141.62 13.5Q142.28 14.05 142.68 14.92Q143.17 15.99 143.17 17.44Q143.17 19.1 142.62 20.27Q142.15 21.3 141.36 21.9Q141.24 21.99 141.11 22.07Q140.96 22.17 140.8 22.25ZM221.46 22.25Q220.6 22.7 219.52 22.7Q218.15 22.7 217.19 22.07Q216.8 21.81 216.48 21.46Q215.38 20.22 215.38 17.93Q215.38 16.36 215.95 15.19Q216.4 14.26 217.12 13.66Q217.32 13.49 217.53 13.35Q217.79 13.19 218.07 13.06Q218.88 12.7 219.86 12.7Q220.95 12.7 221.77 13.16Q221.87 13.21 221.96 13.27Q222.12 13.38 222.27 13.5Q222.94 14.05 223.34 14.92Q223.83 15.99 223.83 17.44Q223.83 19.1 223.28 20.27Q222.81 21.3 222.01 21.9Q221.89 21.99 221.77 22.07Q221.62 22.17 221.46 22.25ZM178.02 22.61L175.85 22.61L175.85 12.81L177.81 12.81Q180.6 12.81 181.95 14.03Q182.07 14.15 182.19 14.27Q183.31 15.48 183.31 17.73Q183.31 19.83 182.27 21.04Q182.13 21.21 181.97 21.36Q180.63 22.61 178.02 22.61ZM194.52 19.42L189.64 19.42L192.13 13.27L194.52 19.42ZM68.66 18.97L65.54 18.97L67.12 15.07L68.66 18.97ZM112.6 18.97L109.48 18.97L111.07 15.07L112.6 18.97Z" fill="#2B1B9A" fill-opacity="1.000000" fill-rule="evenodd"/>
</svg>
