<svg width="188" height="88" viewBox="0 0 188 88" fill="none" xmlns="http://www.w3.org/2000/svg">
<g clip-path="url(#clip0_477_213)">
<path d="M55.5031 31.2037C53.2017 29.9198 50.3288 29.4103 47.4103 29.77C40.0609 30.6792 36.1055 36.589 35.6452 47.3296V47.4045H40.7741V47.3346C40.9966 41.9093 42.1752 38.3275 44.3754 36.3892C45.8524 35.0853 47.8301 34.5158 50.2478 34.6857C52.2205 34.8305 53.92 35.8746 54.9012 37.5531C55.9128 39.2866 55.9837 41.4098 55.0833 43.2382C52.8628 47.7692 47.4962 48.4636 42.5393 48.5535L42.4736 48.5685H34.4464C34.1935 48.5835 33.8597 48.6035 33.5411 48.6334C30.3393 48.9432 26.8391 49.6575 25.1497 52.615C23.607 55.3176 23.951 59.0793 25.9489 61.3723C27.436 63.0758 29.6261 64.005 31.8921 64.005C32.8582 64.005 33.8344 63.8351 34.7803 63.4904C36.7276 62.7711 40.0862 60.6729 40.6628 54.6532L40.6729 54.5782H35.5086L35.4985 54.6382C35.2962 56.052 34.5223 59.2941 31.533 58.9394C30.658 58.8345 29.8689 58.245 29.4794 57.4058C29.1051 56.5915 29.1658 55.7222 29.6514 55.0179C30.3241 54.0387 31.9731 53.5142 34.6892 53.4193H34.7348H34.8258C35.0989 53.4093 35.3518 53.4043 35.6047 53.4043V53.4243L42.767 53.4642C46.1053 53.3843 49.6661 53.0945 53.0652 51.5709C55.7813 50.3519 58.0322 48.3337 59.408 45.8958C60.8748 43.2881 61.244 40.4156 60.4702 37.5931C59.7064 34.8105 57.9917 32.6075 55.5082 31.2187L55.5031 31.2037Z" fill="url(#paint0_linear_477_213)"/>
<path d="M124.773 48.7233C124.217 49.2728 123.438 49.6175 122.634 49.6175C121.207 49.6175 120.049 48.5385 119.912 47.1647V31.2736H114.46V34.0761C113.529 33.072 112.432 32.3077 111.167 31.7931C109.903 31.2786 108.512 31.0188 106.999 31.0188C104.728 31.0188 102.7 31.5084 100.914 32.4825C99.1238 33.4617 97.7278 34.8305 96.7263 36.5989C95.7248 38.3674 95.219 40.4256 95.219 42.7835C95.219 45.1414 95.7197 47.2096 96.7263 48.9881C97.7278 50.7715 99.1238 52.1503 100.914 53.1245C102.705 54.1036 104.733 54.5882 106.999 54.5882C108.598 54.5882 110.059 54.3134 111.385 53.7689C112.71 53.2244 113.823 52.4051 114.723 51.311L115.446 50.0821C116.68 52.7947 119.437 54.6931 122.639 54.6931C124.495 54.6931 126.2 54.0536 127.55 52.9896C126.331 51.7956 125.385 50.3419 124.783 48.7283L124.773 48.7233ZM112.583 47.9939C111.273 49.3178 109.614 49.9772 107.611 49.9772C105.608 49.9772 103.954 49.3178 102.659 47.9939C101.365 46.6751 100.717 44.9366 100.717 42.7785C100.717 40.6204 101.365 38.8869 102.659 37.5631C103.954 36.2442 105.603 35.5798 107.611 35.5798C109.619 35.5798 111.278 36.2392 112.583 37.5631C113.893 38.8869 114.546 40.6204 114.546 42.7785C114.546 44.9366 113.893 46.6701 112.583 47.9939Z" fill="#2B1B9A"/>
<path d="M161.151 33.5566C162.926 35.2502 163.811 37.768 163.811 41.1V54.2885H158.359V41.7944C158.359 39.7862 157.878 38.2675 156.917 37.2484C155.956 36.2293 154.59 35.7197 152.815 35.7197C150.807 35.7197 149.224 36.3142 148.061 37.5082C146.897 38.7021 146.316 40.4156 146.316 42.6587V54.2935H140.863V24H146.316V33.9413C147.216 32.9921 148.329 32.2678 149.654 31.7632C150.979 31.2586 152.451 31.0089 154.085 31.0089C157.023 31.0089 159.38 31.8581 161.151 33.5516V33.5566Z" fill="#2B1B9A"/>
<path d="M139.148 48.2987C138.248 49.088 137.064 49.5676 135.78 49.5676C133.028 49.5676 131.05 47.3795 131.01 44.6719V35.7547H137.251V31.4435H131.01V24H125.557V44.592C125.557 50.1621 130.145 54.6931 135.785 54.6931C135.8 54.6931 135.815 54.6931 135.83 54.6931C135.845 54.6931 135.86 54.6931 135.876 54.6931C137.024 54.6931 138.121 54.4933 139.148 54.1486V48.3037V48.2987Z" fill="#2B1B9A"/>
<path d="M87.9607 32.4776C89.7512 33.4568 91.1523 34.8356 92.169 36.614C93.1857 38.3975 93.6965 40.4507 93.6965 42.7786C93.6965 45.1066 93.1857 47.1698 92.169 48.9632C91.1523 50.7566 89.7462 52.1454 87.9607 53.1196C86.1701 54.0987 84.1418 54.5833 81.8758 54.5833C78.7348 54.5833 76.2462 53.5492 74.4152 51.481V62.6412H68.9626V31.2737H74.1572V34.291C75.0576 33.202 76.1703 32.3827 77.4956 31.8332C78.8208 31.2887 80.2825 31.0139 81.8809 31.0139C84.152 31.0139 86.1802 31.5035 87.9657 32.4776H87.9607ZM86.2157 47.9891C87.5105 46.6702 88.1579 44.9317 88.1579 42.7736C88.1579 40.6155 87.5105 38.882 86.2157 37.5582C84.9208 36.2393 83.2719 35.5749 81.2638 35.5749C79.9538 35.5749 78.7752 35.8697 77.7282 36.4592C76.6812 37.0486 75.8517 37.8879 75.2397 38.9819C74.6276 40.076 74.3242 41.3399 74.3242 42.7736C74.3242 44.2074 74.6276 45.4763 75.2397 46.5653C75.8517 47.6594 76.6812 48.4986 77.7282 49.0881C78.7752 49.6776 79.9538 49.9723 81.2638 49.9723C83.2719 49.9723 84.9208 49.3129 86.2157 47.9891Z" fill="#2B1B9A"/>
</g>
<defs>
<linearGradient id="paint0_linear_477_213" x1="24.1887" y1="46.83" x2="60.8596" y2="46.83" gradientUnits="userSpaceOnUse">
<stop stop-color="#67B6F4"/>
<stop offset="0.4" stop-color="#79A9F4"/>
<stop offset="1" stop-color="#9D91F5"/>
</linearGradient>
<clipPath id="clip0_477_213">
<rect width="139.623" height="40" fill="white" transform="translate(24.1887 24)"/>
</clipPath>
</defs>
</svg>
