<svg width="80" height="62" viewBox="0 0 80 62" fill="none" xmlns="http://www.w3.org/2000/svg">
<g clip-path="url(#clip0_125_62)">
<path d="M45.6201 13.3165L52.0387 6.89788C57.8088 1.12779 67.1677 1.12779 72.9378 6.89788C78.7079 12.668 78.7079 22.7429 72.9378 28.513" stroke="#2B1B9A" stroke-width="3.80172" stroke-miterlimit="10" stroke-linecap="round"/>
<path d="M48.7887 10.138L45.2922 13.6345C42.3237 16.603 37.5113 16.604 34.5416 13.6368L27.7968 6.89788C22.0268 1.12779 12.6678 1.12779 6.89776 6.89788C1.12767 12.668 1.12767 22.0269 6.89776 27.797L35.4321 54.1912C38.3283 56.8702 42.7923 56.889 45.7109 54.2346L68.431 33.5715" stroke="#2B1B9A" stroke-width="3.80172" stroke-miterlimit="10" stroke-linecap="round"/>
<path d="M26.6116 33.582L36.544 42.7624C39.0426 45.0719 42.9192 44.9956 45.3251 42.5897L54.3328 33.582" stroke="#67B6F4" stroke-width="3.80172" stroke-miterlimit="10" stroke-linecap="round"/>
<path d="M21.5429 28.5127L14.2451 21.6164C11.996 19.491 11.9463 15.9278 14.1354 13.7405V13.7405C16.1688 11.7088 19.4249 11.5889 21.6021 13.4656L33.5817 23.7914V23.7914C37.2212 26.8672 42.5654 26.8103 46.1385 23.6575L57.2213 13.8786C59.5781 11.7991 63.1642 11.9829 65.2961 14.2924V14.2924C67.4012 16.5729 67.3305 20.1087 65.1359 22.3033L58.9265 28.5127" stroke="#9D91F5" stroke-width="3.80172" stroke-miterlimit="10" stroke-linecap="round"/>
</g>
<defs>
<clipPath id="clip0_125_62">
<rect width="79.8362" height="61.5724" fill="white"/>
</clipPath>
</defs>
</svg>
