<svg width="209" height="147" viewBox="0 0 209 147" fill="none" xmlns="http://www.w3.org/2000/svg">
<path d="M52.957 13.3165L59.3756 6.89788C65.1457 1.12779 74.5046 1.12779 80.2747 6.89788C86.0448 12.668 86.0448 22.7429 80.2747 28.513" stroke="#2B1B9A" stroke-width="3.80172" stroke-miterlimit="10" stroke-linecap="round"/>
<path d="M56.1256 10.138L52.6291 13.6345C49.6607 16.603 44.8482 16.604 41.8785 13.6368L35.1338 6.89788C29.3637 1.12779 20.0048 1.12779 14.2347 6.89788C8.46458 12.668 8.46458 22.0269 14.2347 27.797L42.769 54.1912C45.6652 56.8702 50.1292 56.889 53.0479 54.2346L75.7679 33.5715" stroke="#2B1B9A" stroke-width="3.80172" stroke-miterlimit="10" stroke-linecap="round"/>
<path d="M33.9485 33.582L43.8809 42.7624C46.3795 45.0719 50.2561 44.9956 52.662 42.5897L61.6697 33.582" stroke="#67B6F4" stroke-width="3.80172" stroke-miterlimit="10" stroke-linecap="round"/>
<path d="M28.8798 28.5127L21.5821 21.6164C19.3329 19.491 19.2833 15.9278 21.4723 13.7405V13.7405C23.5057 11.7088 26.7618 11.5889 28.939 13.4656L40.9186 23.7914V23.7914C44.5581 26.8672 49.9023 26.8103 53.4754 23.6575L64.5582 13.8786C66.915 11.7991 70.5012 11.9829 72.633 14.2924V14.2924C74.7381 16.5729 74.6675 20.1087 72.4728 22.3033L66.2634 28.5127" stroke="#9D91F5" stroke-width="3.80172" stroke-miterlimit="10" stroke-linecap="round"/>
<path d="M0.270069 100.966L9.63752 79.372H13.8042L22.8067 100.966H17.758L16.0244 96.5558H7.11317L5.31876 100.966H0.270069ZM8.81634 92.4195H14.3821L11.6448 85.4548L8.81634 92.4195ZM40.0594 79.372H44.8344V100.966H40.4244L30.844 87.5533V100.966H26.069V79.372H30.479L40.0594 92.7845V79.372ZM50.7339 100.966V79.372H55.6914V100.966H50.7339ZM68.583 101.24C65.9269 101.24 63.8689 100.672 62.409 99.5364C60.9491 98.4009 60.1178 96.7282 59.9151 94.5181L64.5684 93.849C64.69 94.9033 65.1057 95.7144 65.8154 96.2821C66.525 96.8295 67.5084 97.1033 68.7655 97.1033C69.8401 97.1033 70.6613 96.9208 71.229 96.5558C71.817 96.1706 72.111 95.6333 72.111 94.9439C72.111 94.3153 71.8069 93.8186 71.1986 93.4536C70.5903 93.0886 69.5867 92.744 68.1876 92.4195C66.6872 92.0546 65.42 91.6186 64.3859 91.1118C63.3518 90.5846 62.5712 89.9053 62.044 89.074C61.5169 88.2427 61.2533 87.1884 61.2533 85.911C61.2533 84.5728 61.598 83.3866 62.2874 82.3526C62.9767 81.3185 63.9398 80.5176 65.1767 79.9499C66.4135 79.3619 67.8429 79.0679 69.465 79.0679C71.5737 79.0679 73.2971 79.6052 74.6354 80.6798C75.9736 81.7544 76.744 83.2244 76.9468 85.0898L72.5976 85.8198C72.4354 84.9884 72.0603 84.3498 71.4723 83.9037C70.8843 83.4373 70.1443 83.2042 69.2521 83.2042C68.36 83.2042 67.6402 83.4171 67.0927 83.8429C66.5453 84.2484 66.2716 84.806 66.2716 85.5156C66.2716 86.1644 66.5351 86.6916 67.0623 87.0971C67.5895 87.4824 68.5526 87.8473 69.9516 88.192C71.4318 88.557 72.7091 88.9726 73.7838 89.439C74.8584 89.8851 75.6796 90.5035 76.2473 91.2942C76.8353 92.085 77.1293 93.1596 77.1293 94.5181C77.1293 95.836 76.7745 97.0019 76.0648 98.0157C75.3551 99.0295 74.3515 99.8202 73.0538 100.388C71.7765 100.956 70.2862 101.24 68.583 101.24ZM78.5844 100.966L87.9518 79.372H92.1185L101.121 100.966H96.0723L94.3387 96.5558H85.4275L83.6331 100.966H78.5844ZM87.1307 92.4195H92.6964L89.9592 85.4548L87.1307 92.4195ZM15.8723 120.018H6.38324V127.013H15.5074V129.659H6.38324V138.966H3.37228V117.372H15.8723V120.018ZM29.5027 139.24C27.4143 139.24 25.6097 138.824 24.0891 137.993C22.5886 137.141 21.4329 135.924 20.6219 134.343C19.8109 132.741 19.4053 130.815 19.4053 128.564C19.4053 126.314 19.8514 124.327 20.7435 122.603C21.6357 120.859 22.8725 119.501 24.454 118.528C26.0558 117.555 27.9111 117.068 30.0197 117.068C31.946 117.068 33.639 117.514 35.0989 118.406C36.5587 119.298 37.6942 120.545 38.5052 122.147C39.3162 123.729 39.7217 125.594 39.7217 127.743C39.7217 130.075 39.2757 132.102 38.3835 133.826C37.5117 135.529 36.3053 136.857 34.7643 137.81C33.2233 138.743 31.4695 139.219 29.5027 139.24ZM29.4723 136.411C30.8713 136.411 32.1082 136.077 33.1828 135.407C34.2574 134.718 35.0887 133.725 35.6767 132.427C36.285 131.109 36.5891 129.538 36.5891 127.713C36.5891 126.111 36.3154 124.722 35.768 123.546C35.2408 122.37 34.4804 121.468 33.4869 120.839C32.5137 120.19 31.358 119.866 30.0197 119.866C28.5599 119.866 27.2622 120.231 26.1268 120.961C25.0116 121.671 24.1296 122.684 23.4808 124.002C22.8522 125.3 22.538 126.81 22.538 128.534C22.538 131.068 23.1564 133.015 24.3932 134.373C25.63 135.732 27.3231 136.411 29.4723 136.411ZM60.0819 117.372H63.1233L63.1841 128.716C63.1841 132.062 62.4237 134.657 60.9031 136.502C59.3824 138.327 57.1723 139.24 54.2728 139.24C51.3126 139.24 49.1025 138.469 47.6426 136.928C46.1828 135.387 45.4528 133.005 45.4528 129.781V117.372H48.5551V129.568C48.5551 131.981 49.0113 133.725 49.9237 134.799C50.8564 135.874 52.2959 136.411 54.2424 136.411C56.27 136.411 57.7603 135.783 58.7133 134.525C59.6662 133.248 60.1326 131.281 60.1123 128.625L60.0819 117.372ZM84.0608 117.372H87.0109V138.966H84.3345L72.5948 122.512V138.966H69.6446V117.372H72.3211L84.0608 133.826V117.372ZM93.5373 138.966V117.372H99.4376C107.852 117.372 112.059 120.941 112.059 128.078C112.059 130.308 111.583 132.244 110.63 133.887C109.697 135.509 108.359 136.766 106.615 137.658C104.871 138.53 102.803 138.966 100.411 138.966H93.5373ZM96.6091 136.229H100.289C103.128 136.229 105.277 135.549 106.737 134.191C108.197 132.832 108.927 130.845 108.927 128.23C108.927 125.493 108.187 123.455 106.706 122.117C105.226 120.778 102.955 120.109 99.8938 120.109H96.6091V136.229ZM114.94 138.966L124.034 117.372H126.65L135.378 138.966H132.246L130.147 133.583H120.263L118.073 138.966H114.94ZM121.327 130.967H129.144L125.311 121.143L121.327 130.967ZM152.273 117.372L151.969 120.048H145.126V138.966H142.054V120.048H135.028V117.372H152.273ZM156.275 138.966V117.372H159.347V138.966H156.275ZM175.218 139.24C173.13 139.24 171.325 138.824 169.804 137.993C168.304 137.141 167.148 135.924 166.337 134.343C165.526 132.741 165.121 130.815 165.121 128.564C165.121 126.314 165.567 124.327 166.459 122.603C167.351 120.859 168.588 119.501 170.169 118.528C171.771 117.555 173.626 117.068 175.735 117.068C177.661 117.068 179.354 117.514 180.814 118.406C182.274 119.298 183.409 120.545 184.221 122.147C185.032 123.729 185.437 125.594 185.437 127.743C185.437 130.075 184.991 132.102 184.099 133.826C183.227 135.529 182.021 136.857 180.48 137.81C178.939 138.743 177.185 139.219 175.218 139.24ZM175.188 136.411C176.587 136.411 177.823 136.077 178.898 135.407C179.973 134.718 180.804 133.725 181.392 132.427C182 131.109 182.304 129.538 182.304 127.713C182.304 126.111 182.031 124.722 181.483 123.546C180.956 122.37 180.196 121.468 179.202 120.839C178.229 120.19 177.073 119.866 175.735 119.866C174.275 119.866 172.978 120.231 171.842 120.961C170.727 121.671 169.845 122.684 169.196 124.002C168.568 125.3 168.253 126.81 168.253 128.534C168.253 131.068 168.872 133.015 170.109 134.373C171.345 135.732 173.038 136.411 175.188 136.411ZM205.676 117.372H208.626V138.966H205.949L194.21 122.512V138.966H191.259V117.372H193.936L205.676 133.826V117.372Z" fill="#2B1B9A"/>
</svg>
