<svg width="656.000488" height="493.005859" viewBox="0 0 656 493.006" fill="none" xmlns="http://www.w3.org/2000/svg" xmlns:xlink="http://www.w3.org/1999/xlink">
	<desc>
			Created with Pixso.
	</desc>
	<defs>
		<filter id="filter_115_36_dd" x="0.000000" y="0.000000" width="656.000488" height="493.005859" filterUnits="userSpaceOnUse" color-interpolation-filters="sRGB">
			<feFlood flood-opacity="0" result="BackgroundImageFix"/>
			<feColorMatrix in="SourceAlpha" type="matrix" values="0 0 0 0 0 0 0 0 0 0 0 0 0 0 0 0 0 0 127 0" result="hardAlpha"/>
			<feOffset dx="10" dy="22"/>
			<feGaussianBlur stdDeviation="20"/>
			<feComposite in2="hardAlpha" operator="out" k2="-1" k3="1"/>
			<feColorMatrix type="matrix" values="0 0 0 0 0.16863 0 0 0 0 0.10588 0 0 0 0 0.60392 0 0 0 0.059 0"/>
			<feBlend mode="normal" in2="BackgroundImageFix" result="effect_dropShadow_1"/>
			<feBlend mode="normal" in="SourceGraphic" in2="effect_dropShadow_1" result="shape"/>
		</filter>
		<linearGradient x1="159.969727" y1="684.088867" x2="475.946899" y2="-235.137970" id="paint_linear_115_36_0" gradientUnits="userSpaceOnUse">
			<stop stop-color="#A3D7F4"/>
			<stop offset="1.000000" stop-color="#E2DEFF"/>
		</linearGradient>
	</defs>
	<g filter="url(#filter_115_36_dd)">
		<path id="Vector (Stroke)" d="M549.77 206.77L365.97 379.56C334.98 408.72 286.29 408.05 256.12 378.05L87.57 210.42C50.8 173.86 50.8 114.54 87.57 77.97C124.34 41.4 183.99 41.41 220.76 77.97L265.24 122.14C292.39 149.12 336.38 149.11 363.52 122.12L365.01 120.63C365.33 120.37 365.63 120.1 365.92 119.81L412.86 73.12C449.63 36.55 514.12 41.4 550.89 77.97C585.49 112.38 583.58 169.18 549.77 206.77Z" stroke="url(#paint_linear_115_36_0)" stroke-opacity="1.000000" stroke-width="20.000000"/>
	</g>
</svg>
