<svg width="241" height="35" viewBox="0 0 241 35" fill="none" xmlns="http://www.w3.org/2000/svg">
<g clip-path="url(#clip0_114_88)">
<path d="M25.6003 7.83384L29.202 4.23217C32.4398 0.994388 37.6914 0.994388 40.9292 4.23217C44.1669 7.46994 44.1669 13.1233 40.9292 16.3611" stroke="#2B1B9A" stroke-width="2.13327" stroke-miterlimit="10" stroke-linecap="round"/>
<path d="M27.3768 6.05017L25.4148 8.01219C23.7491 9.67787 21.0487 9.67845 19.3823 8.01348L15.5976 4.23204C12.3598 0.994266 7.10825 0.994266 3.87047 4.23204C0.632694 7.46982 0.632694 12.7214 3.87047 15.9592L19.882 30.7698C21.5071 32.2731 24.012 32.2836 25.6498 30.7942L38.3987 19.1995" stroke="#2B1B9A" stroke-width="2.13327" stroke-miterlimit="10" stroke-linecap="round"/>
<path d="M14.9333 19.2054L20.5067 24.3568C21.9088 25.6527 24.0841 25.61 25.4341 24.2599L30.4886 19.2054" stroke="#67B6F4" stroke-width="2.13327" stroke-miterlimit="10" stroke-linecap="round"/>
<path d="M12.0893 16.3611L7.99429 12.4914C6.73222 11.2987 6.70435 9.29931 7.9327 8.07196V8.07196C9.07369 6.9319 10.9008 6.86463 12.1225 7.9177L18.8446 13.7118V13.7118C20.8869 15.4378 23.8857 15.4058 25.8907 13.6367L32.1096 8.14942C33.432 6.98256 35.4443 7.08568 36.6406 8.38161V8.38161C37.8218 9.66131 37.7822 11.6453 36.5507 12.8768L33.0664 16.3611" stroke="#9D91F5" stroke-width="2.13327" stroke-miterlimit="10" stroke-linecap="round"/>
</g>
<path d="M60.7441 24.1366L66.0005 12.0196H68.3385L73.3901 24.1366H70.5571L69.5844 21.662H64.584L63.5771 24.1366H60.7441ZM65.5397 19.341H68.6628L67.1268 15.4329L65.5397 19.341ZM83.0711 12.0196H85.7505V24.1366H83.2759L77.9001 16.6104V24.1366H75.2207V12.0196H77.6953L83.0711 19.5458V12.0196ZM89.061 24.1366V12.0196H91.8427V24.1366H89.061ZM99.0766 24.2902C97.5862 24.2902 96.4314 23.9716 95.6122 23.3345C94.793 22.6974 94.3266 21.7587 94.2128 20.5186L96.8239 20.1431C96.8922 20.7347 97.1254 21.1898 97.5236 21.5084C97.9218 21.8156 98.4736 21.9692 99.179 21.9692C99.782 21.9692 100.243 21.8668 100.561 21.662C100.891 21.4458 101.056 21.1443 101.056 20.7575C101.056 20.4048 100.886 20.1261 100.544 19.9213C100.203 19.7165 99.6398 19.5231 98.8548 19.341C98.0129 19.1362 97.3018 18.8916 96.7215 18.6072C96.1413 18.3114 95.7032 17.9302 95.4074 17.4637C95.1116 16.9973 94.9637 16.4056 94.9637 15.6889C94.9637 14.9379 95.1571 14.2724 95.544 13.6921C95.9308 13.1119 96.4712 12.6625 97.1652 12.3439C97.8593 12.0139 98.6614 11.849 99.5716 11.849C100.755 11.849 101.722 12.1505 102.473 12.7535C103.224 13.3565 103.656 14.1813 103.77 15.2281L101.329 15.6377C101.238 15.1712 101.028 14.8128 100.698 14.5625C100.368 14.3008 99.9527 14.17 99.4521 14.17C98.9515 14.17 98.5476 14.2894 98.2404 14.5284C97.9332 14.7559 97.7796 15.0688 97.7796 15.467C97.7796 15.8311 97.9275 16.1269 98.2233 16.3544C98.5191 16.5706 99.0596 16.7754 99.8446 16.9688C100.675 17.1736 101.392 17.4068 101.995 17.6685C102.598 17.9188 103.059 18.2658 103.377 18.7096C103.707 19.1533 103.872 19.7563 103.872 20.5186C103.872 21.2581 103.673 21.9123 103.275 22.4812C102.877 23.0501 102.314 23.4938 101.585 23.8123C100.869 24.1309 100.032 24.2902 99.0766 24.2902ZM104.689 24.1366L109.945 12.0196H112.283L117.335 24.1366H114.502L113.529 21.662H108.529L107.522 24.1366H104.689ZM109.484 19.341H112.607L111.071 15.4329L109.484 19.341ZM131.268 13.146H125.892V17.6003H131.114V18.7266H125.892V24.1366H124.595V12.0196H131.268V13.146ZM138.888 24.2731C137.762 24.2731 136.783 24.0399 135.953 23.5734C135.133 23.0956 134.502 22.4129 134.058 21.5255C133.615 20.638 133.393 19.5629 133.393 18.3C133.393 17.0371 133.637 15.9221 134.126 14.955C134.627 13.9766 135.31 13.2143 136.174 12.6682C137.05 12.122 138.063 11.849 139.212 11.849C140.27 11.849 141.198 12.0993 141.994 12.5999C142.802 13.1005 143.428 13.8002 143.871 14.699C144.315 15.5865 144.537 16.6332 144.537 17.8392C144.537 19.1476 144.292 20.2853 143.803 21.2524C143.314 22.2081 142.642 22.9533 141.789 23.4881C140.947 24.0114 139.98 24.2731 138.888 24.2731ZM138.888 23.0614C139.741 23.0614 140.486 22.8566 141.124 22.447C141.772 22.0261 142.278 21.4231 142.642 20.638C143.007 19.853 143.189 18.9087 143.189 17.8051C143.189 16.838 143.024 16.0017 142.694 15.2963C142.375 14.5796 141.92 14.0278 141.328 13.6409C140.737 13.2541 140.037 13.0607 139.229 13.0607C138.353 13.0607 137.574 13.2825 136.891 13.7263C136.22 14.1586 135.691 14.7673 135.304 15.5523C134.929 16.3374 134.741 17.2533 134.741 18.3C134.741 19.8246 135.111 21.0021 135.85 21.8327C136.59 22.6518 137.602 23.0614 138.888 23.0614ZM156.185 12.0196H157.499L157.517 18.317C157.517 20.2512 157.107 21.7303 156.288 22.7542C155.48 23.7668 154.257 24.2731 152.619 24.2731C151.026 24.2731 149.837 23.8465 149.052 22.9932C148.278 22.1399 147.891 20.7973 147.891 18.9656V12.0196H149.239V18.8973C149.239 20.3536 149.507 21.4117 150.042 22.0716C150.576 22.7315 151.435 23.0614 152.619 23.0614C153.881 23.0614 154.797 22.6746 155.366 21.9009C155.935 21.1159 156.214 19.9156 156.202 18.3L156.185 12.0196ZM169.457 12.0196H170.72V24.1366H169.594L162.546 14.2382V24.1366H161.283V12.0196H162.409L169.457 21.918V12.0196ZM174.54 24.1366V12.0196H177.612C182.299 12.0196 184.643 14.0164 184.643 18.0099C184.643 19.2841 184.381 20.382 183.858 21.3036C183.334 22.2138 182.583 22.9135 181.605 23.4028C180.627 23.892 179.455 24.1366 178.089 24.1366H174.54ZM175.854 22.9761H178.021C179.762 22.9761 181.076 22.5608 181.963 21.7303C182.862 20.8997 183.312 19.688 183.312 18.0952C183.312 16.4455 182.857 15.2167 181.946 14.4089C181.048 13.5897 179.671 13.1801 177.816 13.1801H175.854V22.9761ZM186.552 24.1366L191.586 12.0196H192.73L197.56 24.1366H196.228L194.966 20.894H189.214L187.9 24.1366H186.552ZM189.658 19.7847H194.539L192.15 13.6409L189.658 19.7847ZM206.889 12.0196L206.769 13.1631H202.895V24.1366H201.564V13.1631H197.605V12.0196H206.889ZM209.311 24.1366V12.0196H210.625V24.1366H209.311ZM219.537 24.2731C218.41 24.2731 217.432 24.0399 216.601 23.5734C215.782 23.0956 215.151 22.4129 214.707 21.5255C214.263 20.638 214.041 19.5629 214.041 18.3C214.041 17.0371 214.286 15.9221 214.775 14.955C215.276 13.9766 215.959 13.2143 216.823 12.6682C217.699 12.122 218.712 11.849 219.861 11.849C220.919 11.849 221.846 12.0993 222.643 12.5999C223.451 13.1005 224.076 13.8002 224.52 14.699C224.964 15.5865 225.186 16.6332 225.186 17.8392C225.186 19.1476 224.941 20.2853 224.452 21.2524C223.963 22.2081 223.291 22.9533 222.438 23.4881C221.596 24.0114 220.629 24.2731 219.537 24.2731ZM219.537 23.0614C220.39 23.0614 221.135 22.8566 221.772 22.447C222.421 22.0261 222.927 21.4231 223.291 20.638C223.655 19.853 223.837 18.9087 223.837 17.8051C223.837 16.838 223.672 16.0017 223.343 15.2963C223.024 14.5796 222.569 14.0278 221.977 13.6409C221.386 13.2541 220.686 13.0607 219.878 13.0607C219.002 13.0607 218.223 13.2825 217.54 13.7263C216.869 14.1586 216.34 14.7673 215.953 15.5523C215.577 16.3374 215.39 17.2533 215.39 18.3C215.39 19.8246 215.759 21.0021 216.499 21.8327C217.239 22.6518 218.251 23.0614 219.537 23.0614ZM236.766 12.0196H238.029V24.1366H236.902L229.854 14.2382V24.1366H228.591V12.0196H229.718L236.766 21.918V12.0196Z" fill="#2B1B9A"/>
<defs>
<clipPath id="clip0_114_88">
<rect width="44.7986" height="34.5502" fill="white" transform="translate(0 0.36145)"/>
</clipPath>
</defs>
</svg>
